<?xml version="1.0" encoding="utf-8"?>
<!-- Generator: Adobe Illustrator 25.4.1, SVG Export Plug-In . SVG Version: 6.00 Build 0)  -->
<svg version="1.1" id="Layer_1" xmlns="http://www.w3.org/2000/svg" xmlns:xlink="http://www.w3.org/1999/xlink" x="0px" y="0px"
	 viewBox="0 0 196 118" style="enable-background:new 0 0 196 118;" xml:space="preserve">
<style type="text/css">
	.st0{fill-rule:evenodd;clip-rule:evenodd;fill:#282829;}
	.st1{fill:#282829;}
</style>
<path class="st0" d="M16.1,0H0v52.4h26.8c1.4-2.8,2.1-6.6,2-11.3l-0.1-27.3c0-4.5-1.1-8-3.2-10.3S20.3,0,16.1,0z M43.8,52.4H32.6
	l5-52.4h19.8l5,52.4h-11L51.1,49H44L43.8,52.4z M77.1,52.4H66.5V0h17.8l4.9,35.6L94.1,0h18v52.4h-10.7V16.3l-5.8,36.1H83.2
	l-6.1-36.1V52.4z M128,52.4h-11.3V0H128V52.4z M142.9,52.4h-11.2L136.8,0h19.8l5,52.4h-11l-0.3-3.5h-7.1L142.9,52.4z M177.1,52.4
	h-11.4V0h12l5.4,27.9V0h11.3v52.4h-12.6l-4.6-23.2L177.1,52.4L177.1,52.4z M17,44.9c0,2.1-1.1,3.1-3.2,3.1h-2V10.2h1.3
	c1.1,0,2,0.1,2.5,0.3s0.9,0.7,1.1,1.4c0.2,0.6,0.3,1.6,0.3,2.9V44.9z M50.2,39.6h-5.3l2.2-29.7h0.5L50.2,39.6z M144,39.6h5.3
	l-2.6-29.7h-0.5L144,39.6z"/>
<path class="st1" d="M7,117.4L0.4,55.6h12.1l3.5,39l3.5-39H31l3.3,39l3.3-39h12.2L43,117.4H28.1L25,87.6l-3,29.8
	C22,117.4,7,117.4,7,117.4z"/>
<path class="st1" d="M52.8,117.4V55.6h12v61.8C64.8,117.4,52.8,117.4,52.8,117.4z"/>
<path class="st1" d="M69.7,117.4V55.6h24.8v12H82.3v12H94v11.7H82.3v14.2h13v12L69.7,117.4L69.7,117.4z"/>
<path class="st1" d="M113.8,118c-4.5,0-8.1-1.4-10.9-4.2c-2.7-2.8-4-6.7-4-11.7V73.6c0-6.1,1.2-10.8,3.7-13.9
	c2.4-3.1,6.3-4.7,11.5-4.7c4.6,0,8.2,1.2,11,3.7s4.2,6.1,4.2,10.8v10.7H117V71c0-1.8-0.2-3-0.6-3.7s-1.2-1-2.2-1
	c-1.1,0-1.9,0.4-2.3,1.2c-0.4,0.8-0.6,1.9-0.6,3.4v31c0,1.6,0.2,2.8,0.7,3.6c0.5,0.7,1.2,1.1,2.2,1.1c1.9,0,2.9-1.6,2.9-4.7V90.8
	h12.5v11.7C129.4,112.8,124.2,118,113.8,118z"/>
<path class="st1" d="M133.5,117.4V55.6h24.8v12h-12.2v12h11.7v11.7h-11.7v14.2h13v12L133.5,117.4L133.5,117.4z"/>
<path class="st1" d="M163.2,117.4V55.6h12.2v24.8l5.8-24.8h12.5l-6.9,28.3l8.4,33.6h-12.8l-6.8-30v30L163.2,117.4L163.2,117.4z"/>
</svg>
