<svg width="75" height="85" viewBox="0 0 75 85" fill="none" xmlns="http://www.w3.org/2000/svg">
<path d="M0 5.3125V79.6875H75V5.3125H0ZM40.8147 63.3184C40.8147 70.5566 36.529 73.8604 30.2846 73.8604C24.6429 73.8604 21.3783 70.9717 19.7042 67.4688L25.4464 64.0322C26.5513 65.9746 27.5558 67.6182 29.9833 67.6182C32.2935 67.6182 33.7667 66.7217 33.7667 63.2187V39.4619H40.8147V63.3184ZM57.4888 73.8604C50.9431 73.8604 46.7076 70.7725 44.6484 66.7217L50.3906 63.4346C51.8973 65.875 53.8728 67.6846 57.3382 67.6846C60.2511 67.6846 62.1261 66.2402 62.1261 64.2314C62.1261 61.8408 60.2176 60.9941 56.9866 59.583L55.2288 58.8359C50.1395 56.6943 46.7746 53.9883 46.7746 48.2939C46.7746 43.0479 50.8092 39.0635 57.0871 39.0635C61.5737 39.0635 64.7879 40.6074 67.0982 44.6582L61.6071 48.1445C60.4018 46.0029 59.096 45.1562 57.0703 45.1562C55.0112 45.1562 53.7054 46.4512 53.7054 48.1445C53.7054 50.2363 55.0112 51.083 58.0413 52.3945L59.7991 53.1416C65.7924 55.6816 69.1574 58.2881 69.1574 64.1318C69.1574 70.4072 64.1685 73.8604 57.4888 73.8604Z" fill="#FFF9F9"/>
</svg>
