<svg width="36" height="18" viewBox="0 0 36 18" fill="none" xmlns="http://www.w3.org/2000/svg">
<path d="M34.7897 0.975186C34.0171 0.169372 32.7073 0.114934 31.8644 0.853597L18.0007 13.004L4.13693 0.853597C3.36423 0.176489 2.1993 0.165806 1.41534 0.789409L1.21156 0.975186C0.438861 1.781 0.495804 3.03305 1.33875 3.77171L16.6016 17.1464C16.6113 17.1549 16.6211 17.1634 16.631 17.1717L16.4744 17.0248C16.5613 17.1154 16.655 17.1965 16.754 17.2681C16.7908 17.2944 16.828 17.3194 16.8657 17.3432C16.904 17.3674 16.9435 17.3904 16.9837 17.412C17.0203 17.4317 17.0566 17.4499 17.0933 17.467C17.1366 17.4873 17.1815 17.5063 17.2268 17.5237C17.267 17.5393 17.3077 17.5535 17.3487 17.5665C17.3893 17.5792 17.4299 17.5907 17.4707 17.601C17.516 17.6126 17.5618 17.6225 17.6079 17.631C17.6552 17.6395 17.7028 17.6467 17.7506 17.6522C17.7853 17.6563 17.8207 17.6595 17.8561 17.6619C17.9049 17.6651 17.9534 17.6667 18.0019 17.6667C18.0494 17.6666 18.0971 17.665 18.1448 17.6618C18.1806 17.6595 18.216 17.6563 18.2513 17.6522C18.2985 17.6467 18.3461 17.6395 18.3935 17.6308C18.4395 17.6225 18.4853 17.6126 18.5308 17.6011C18.5714 17.5907 18.612 17.5792 18.6522 17.5665C18.6936 17.5535 18.7343 17.5393 18.7746 17.5238C18.8198 17.5063 18.8647 17.4873 18.9089 17.4666C18.9447 17.4499 18.981 17.4317 19.0169 17.4123C19.0578 17.3904 19.0973 17.3674 19.1362 17.343C19.1733 17.3194 19.2105 17.2944 19.247 17.268C19.3463 17.1965 19.44 17.1154 19.5269 17.0248L19.3703 17.1717C19.3802 17.1634 19.39 17.1549 19.3997 17.1464L34.6626 3.77171C35.5055 3.03305 35.5624 1.781 34.7897 0.975186Z" fill="#0A90A2"/>
</svg>
