<svg width="88" height="78" viewBox="0 0 88 78" fill="none" xmlns="http://www.w3.org/2000/svg">
<path d="M50.9523 30.682C50.9523 27.3152 48.5689 25.4566 44.3828 25.4566H36.6828V36.3035H43.1759C48.187 36.2883 50.9523 34.2773 50.9523 30.682ZM78.987 28.732C77.5356 24.0246 77.3217 18.2508 77.4898 13.7871C77.6578 9.14062 74.0217 4.875 69.1328 4.875H18.8995C13.9953 4.875 10.3745 9.15586 10.5425 13.7871C10.6953 18.2508 10.4967 24.0246 9.04531 28.732C7.57865 33.4547 5.11892 36.4406 1.07031 36.8215V41.1633C5.10365 41.5441 7.57865 44.5301 9.04531 49.2527C10.4967 53.9602 10.7106 59.734 10.5425 64.1977C10.3745 68.8441 14.0106 73.1098 18.8995 73.1098H69.1175C74.0217 73.1098 77.6425 68.8289 77.4745 64.1977C77.3217 59.734 77.5203 53.9602 78.9717 49.2527C80.4384 44.5301 82.8981 41.5441 86.9314 41.1633V36.8215C82.9134 36.4406 80.4384 33.4547 78.987 28.732ZM45.8648 57.1441H30.9078V20.8406H45.7884C52.4036 20.8406 56.7425 24.4055 56.7425 29.8898C56.7425 33.7441 53.8245 37.1871 50.0967 37.7812V37.9793C55.1689 38.5277 58.5759 42.0316 58.5759 46.8609C58.5759 53.2746 53.7939 57.1441 45.8648 57.1441ZM44.337 40.5844H36.6828V52.5281H44.6731C49.8981 52.5281 52.6634 50.441 52.6634 46.5105C52.6634 42.5953 49.8217 40.5844 44.337 40.5844Z" fill="#FFF9F9"/>
</svg>
