<svg width="52" height="74" viewBox="0 0 52 74" fill="none" xmlns="http://www.w3.org/2000/svg">
<path d="M0.0410156 13.845C0.0410156 6.19861 6.29549 0 14.0108 0H37.9812C45.6965 0 51.951 6.19861 51.951 13.845C51.951 18.6867 49.4432 22.9481 45.6447 25.4226C49.4432 27.8973 51.951 32.1585 51.951 37.0003C51.951 44.6467 45.6965 50.8454 37.9812 50.8454H37.6778C34.0609 50.8454 30.7649 49.483 28.284 47.2478V60.0046C28.284 67.7529 21.866 74 14.0861 74C6.39003 74 0.0410156 67.8203 0.0410156 60.1549C0.0410156 55.3134 2.54855 51.0523 6.34673 48.5777C2.54855 46.103 0.0410156 41.8418 0.0410156 37.0003C0.0410156 32.1585 2.54877 27.8973 6.34721 25.4226C2.54877 22.9481 0.0410156 18.6867 0.0410156 13.845ZM23.708 27.6903H14.0108C8.82269 27.6903 4.61694 31.8586 4.61694 37.0003C4.61694 42.1222 8.79026 46.278 13.9507 46.3101C13.9707 46.31 13.9907 46.31 14.0108 46.31H23.708V27.6903ZM28.284 37.0003C28.284 42.142 32.4897 46.3103 37.6778 46.3103H37.9812C43.1693 46.3103 47.375 42.142 47.375 37.0003C47.375 31.8586 43.1693 27.6903 37.9812 27.6903H37.6778C32.4897 27.6903 28.284 31.8586 28.284 37.0003ZM14.0108 50.8454C13.9907 50.8454 13.9707 50.8452 13.9507 50.8452C8.79026 50.8772 4.61694 55.033 4.61694 60.1549C4.61694 65.2778 8.87888 69.4649 14.0861 69.4649C19.3772 69.4649 23.708 65.2105 23.708 60.0046V50.8454H14.0108ZM14.0108 4.53507C8.82269 4.53507 4.61694 8.70328 4.61694 13.845C4.61694 18.9868 8.82269 23.1549 14.0108 23.1549H23.708V4.53507H14.0108ZM28.284 23.1549H37.9812C43.1693 23.1549 47.375 18.9868 47.375 13.845C47.375 8.70328 43.1693 4.53507 37.9812 4.53507H28.284V23.1549Z" fill="#FFF9F9"/>
</svg>
