<svg width="120" height="60" viewBox="0 0 120 60" fill="none" xmlns="http://www.w3.org/2000/svg">
<path d="M52.5377 26.5161L51.7997 29.1301L52.5377 26.5151V26.5161ZM56.3337 32.1941L55.5207 32.1891L56.3337 32.1941ZM56.1337 36.1001L51.2617 36.1181L56.1337 36.1001ZM57.1537 32.2001L56.3397 32.1951L57.1537 32.2001ZM56.5617 35.7701L57.4117 32.5331L56.5617 35.7701ZM74.5017 20.8701L72.9217 28.3031L74.5017 20.8701ZM70.4377 20.8601L69.2377 26.4131L70.4377 20.8601Z" fill="#FFF9F9"/>
<path d="M74.2187 20.5272H70.8387C70.6507 20.5272 70.4647 20.6772 70.4247 20.8612L68.0247 31.9682C67.9847 32.1512 67.7987 32.3012 67.6117 32.3012H65.2187C62.8507 32.3012 63.1247 30.6642 63.6187 28.4212L63.6337 28.3532L63.9207 26.8232L64.0447 26.1932L65.1367 20.8612C65.1747 20.6772 65.0517 20.5262 64.8637 20.5262H61.3937C61.2981 20.5295 61.2061 20.5639 61.1318 20.6241C61.0574 20.6844 61.0047 20.7673 60.9817 20.8602L59.3987 28.2742C58.5387 32.1982 58.7667 35.9402 63.4387 36.0572H70.9057C71.0937 36.0572 71.2787 35.9072 71.3187 35.7232L74.4807 20.8572C74.5207 20.6732 74.3977 20.5232 74.2107 20.5232L74.2187 20.5272ZM87.6987 32.3402C87.8867 32.3402 87.9987 32.4902 87.9717 32.6742L87.6437 34.2792M87.3237 35.8842L87.6517 34.2782L87.3237 35.8842ZM86.9237 36.2222L80.6937 36.2522L86.9237 36.2222Z" fill="#FFF9F9"/>
<path d="M78.666 30.2731C78.663 30.0971 78.863 29.7951 79.051 29.7951L78.629 29.7881C78.429 31.7021 78.666 30.2731 78.666 30.2731ZM80.991 36.2501H80.926H80.991ZM87.699 32.3501C87.887 32.3501 87.999 32.5001 87.972 32.6841L87.599 34.5401M82.591 36.2471H82.577H82.591ZM81.761 36.2501H81.713H81.761ZM81.509 36.2501H81.429H81.509ZM81.251 36.2501H81.181H81.251ZM81.713 36.2501H81.508H81.713Z" fill="#FFF9F9"/>
<path d="M82.5791 36.2472L81.7631 36.2502L82.5791 36.2472ZM86.9161 36.2202L82.5911 36.2462L86.9161 36.2202ZM87.3161 35.8852L87.5911 34.5412L87.3161 35.8862V35.8852ZM81.4201 36.2502H81.2421H81.4201ZM80.9151 36.2522H80.6751H80.9151ZM81.1691 36.2502H80.9691H81.1691ZM31.7111 30.3132L32.2361 27.9852L31.6361 30.6452L31.5661 30.9792L31.7121 30.3112L31.7111 30.3132ZM37.9991 20.4882H34.2861C34.1902 20.492 34.0979 20.5263 34.0229 20.5862C33.9479 20.6461 33.894 20.7285 33.8691 20.8212L33.1651 23.9212C33.1533 23.9613 33.1513 24.0037 33.1594 24.0448C33.1674 24.0858 33.1852 24.1243 33.2114 24.157C33.2375 24.1897 33.2711 24.2156 33.3093 24.2325C33.3476 24.2494 33.3894 24.2569 33.4311 24.2542H37.1731C37.3611 24.2542 37.5471 24.1042 37.5871 23.9212L38.2671 20.8142C38.3071 20.6312 38.1871 20.4812 37.9971 20.4812L37.9991 20.4882ZM37.1991 25.6582L36.0991 30.6962L37.1991 25.6582ZM26.4131 42.3502L29.4751 42.3742C28.5711 42.3742 27.0781 42.3572 26.4121 42.3492L26.4131 42.3502Z" fill="#FFF9F9"/>
<path d="M32.7726 25.657L32.2466 27.985L32.7726 25.657ZM36.9326 25.323H33.1996C33.1037 25.3268 33.0114 25.3611 32.9364 25.4211C32.8614 25.481 32.8075 25.5633 32.7826 25.656L31.7326 30.312L31.5866 30.98L30.5866 35.733C30.5371 35.9548 30.477 36.174 30.4066 36.39C30.4066 36.39 29.7066 38.47 28.5326 38.447L27.3676 38.425C27.272 38.4277 27.1798 38.4608 27.1043 38.5194C27.0288 38.578 26.9739 38.6591 26.9476 38.751L26.1716 42.013C26.1594 42.0529 26.1569 42.0952 26.1644 42.1362C26.1719 42.1773 26.1892 42.2159 26.2148 42.2488C26.2404 42.2818 26.2736 42.3081 26.3115 42.3255C26.3494 42.343 26.3909 42.351 26.4326 42.349L29.4956 42.374C32.4316 42.374 33.9786 40.747 34.9716 36.067L37.2216 25.667C37.2616 25.484 37.1396 25.334 36.9516 25.334L36.9326 25.323ZM90.0926 36.06C89.9046 36.06 89.7926 35.91 89.8226 35.726L92.6396 22.54M94.0056 35.726L95.1456 30.098L94.0056 35.726Z" fill="#FFF9F9"/>
<path d="M89.8641 35.8941C89.8411 35.8021 89.8541 35.5771 89.8941 35.3941L91.2301 29.1341L89.8221 35.7271C89.7821 35.9111 89.9041 36.0611 90.0921 36.0611H90.4341C90.2461 36.0611 89.8861 35.9861 89.8641 35.8941ZM93.7841 35.9861C93.6821 36.0261 93.4441 36.0611 93.2561 36.0611H93.5981C93.6935 36.0573 93.7851 36.0226 93.8591 35.9621C93.933 35.9017 93.9853 35.8188 94.0081 35.7261L94.0761 35.3921C94.0391 35.5761 93.8761 35.9451 93.7761 35.9861H93.7841ZM94.5761 32.9121L95.0791 30.4281L94.5761 32.9121ZM105.684 23.4241L105.839 24.0641C105.882 24.2471 105.763 24.3961 105.576 24.3971" fill="#FFF9F9"/>
<path d="M94.0754 35.3922L94.5754 32.9122L94.0754 35.3922ZM105.53 22.7672L105.683 23.4232L105.53 22.7672ZM95.0804 30.4302L95.2184 29.7662L95.7554 27.2512L95.1474 30.0992L95.0804 30.4292V30.4302ZM92.6854 22.3242L92.5684 22.8742L91.2324 29.1342L92.6404 22.5412L92.6854 22.3252V22.3242Z" fill="#FFF9F9"/>
<path d="M105.839 24.0641L105.684 23.4241L105.454 22.4241C105.15 21.2441 104.258 20.5611 102.32 20.5611L93.4 20.5551C93.3043 20.5584 93.2124 20.5928 93.138 20.6531C93.0637 20.7133 93.011 20.7962 92.988 20.8891L92.85 21.5421L92.65 22.5291L89.906 35.3821C89.866 35.5661 89.853 35.7821 89.876 35.8821C89.899 35.9821 90.259 36.0491 90.446 36.0491H93.266C93.454 36.0491 93.691 36.0151 93.794 35.9741C93.897 35.9331 94.048 35.5741 94.094 35.3801L95.164 30.0861L96.309 24.7221C96.349 24.5391 96.534 24.3901 96.721 24.3891L105.594 24.3851C105.781 24.3851 105.9 24.2351 105.857 24.0521L105.839 24.0641ZM117.261 18.2701L116.578 18.2731H113.738C113.634 18.2793 113.533 18.3077 113.44 18.3563C113.348 18.405 113.268 18.4727 113.204 18.5551L106.924 27.7551C106.818 27.9101 106.697 27.8871 106.654 27.7051L106.192 25.6781C106.167 25.5854 106.113 25.5031 106.038 25.4431C105.963 25.3832 105.871 25.3489 105.775 25.3451H101.738C101.55 25.3451 101.438 25.4921 101.49 25.6731L103.29 32.0111C103.342 32.1911 103.345 32.4881 103.3 32.6711L102.5 35.7381C102.486 35.7774 102.483 35.8196 102.49 35.8606C102.496 35.9017 102.513 35.9404 102.539 35.9733C102.564 36.0062 102.598 36.0322 102.636 36.0489C102.674 36.0656 102.716 36.0726 102.757 36.0691H106.757C106.945 36.0691 107.137 35.9191 107.183 35.7391L107.983 32.6721C108.046 32.4562 108.144 32.2521 108.273 32.0681L118.469 18.5361C118.582 18.3861 118.521 18.2641 118.333 18.2661L117.263 18.2731L117.261 18.2701ZM85.185 26.2081C85.161 26.4081 84.973 26.5581 84.785 26.5581H79.665C79.488 26.5581 79.398 26.4381 79.425 26.2881L79.429 26.2611L79.452 26.1741C79.952 24.8741 80.937 24.0211 82.808 24.0211C84.915 24.0211 85.326 25.0511 85.183 26.2081H85.185ZM83.685 20.3001C77.115 20.3001 75.558 24.2881 74.685 28.3131C73.811 32.4161 73.887 36.2531 80.685 36.2531H81.763L82.593 36.2501L86.919 36.2241C87.0139 36.2197 87.1048 36.1847 87.1782 36.1243C87.2516 36.0639 87.3034 35.9814 87.326 35.8891L87.983 32.6771C88.021 32.4931 87.898 32.3431 87.71 32.3431H81.599C79.169 32.3431 78.446 31.6971 78.712 29.7981H88.482C88.642 29.7951 88.787 29.6981 88.844 29.5461C88.854 29.5191 88.864 29.4901 88.868 29.4611C90.318 23.9911 89.902 20.3041 83.688 20.3041L83.685 20.3001ZM52.629 26.1871L52.537 26.5141C52.537 26.5151 51.799 29.1301 51.799 29.1301L51.061 31.7441C51.0303 31.8363 50.9724 31.917 50.8949 31.9755C50.8175 32.0341 50.724 32.0678 50.627 32.0721H46.722C43.76 32.0721 43.039 29.7551 43.76 26.3381C44.48 22.8431 45.895 20.6701 48.81 20.4501C52.794 20.1501 53.59 22.9521 52.63 26.1861L52.629 26.1871ZM55.307 31.8721C55.307 31.8721 57.147 27.4021 57.567 24.8191C58.137 21.3621 56.407 16.3491 49.722 16.3491C43.075 16.3491 40.189 21.1351 39.088 26.3491C37.988 31.5891 39.43 36.1851 46.038 36.1491L56.124 36.1121C56.2207 36.1075 56.3136 36.0731 56.39 36.0137C56.4665 35.9543 56.5227 35.8727 56.551 35.7801L57.401 32.5421C57.4147 32.5029 57.4185 32.4609 57.4119 32.4198C57.4054 32.3788 57.3887 32.3401 57.3633 32.3071C57.338 32.2742 57.3049 32.248 57.2669 32.2311C57.229 32.2142 57.1874 32.2069 57.146 32.2101H55.519C55.359 32.2091 55.269 32.1061 55.287 31.9701C55.29 31.9451 55.297 31.9201 55.307 31.8941V31.8721Z" fill="#FFF9F9"/>
<path d="M88.2097 28.88C88.2097 29.004 88.1097 29.104 87.9857 29.104C87.8617 29.104 87.7617 29.004 87.7617 28.88C87.7617 28.756 87.8617 28.656 87.9857 28.656C88.1097 28.656 88.2097 28.756 88.2097 28.88Z" fill="#FFF9F9"/>
<path d="M4.55662 23.0669C2.72162 25.7049 2.94962 29.1369 4.35162 31.9389L4.45462 32.1389L4.52062 32.2649L4.56062 32.3379L4.63362 32.4679L4.76762 32.6979L4.84362 32.8239L4.99862 33.0669L5.06462 33.1689L5.28962 33.4939L5.33362 33.5539L5.53862 33.8269L5.61562 33.9249L5.81562 34.1579L5.88762 34.2449L6.15162 34.5469L6.16762 34.5639L6.43562 34.8469L6.52162 34.9339L6.73562 35.1339L6.82362 35.2169L7.11662 35.4839L7.17262 35.5309L7.43962 35.7559L7.53962 35.8439L7.76162 36.0179L7.88162 36.1179L8.13162 36.2979L8.24762 36.3799L8.48962 36.5399L8.59462 36.6099L8.97462 36.8419L9.07962 36.9019L9.36462 37.0619L9.52262 37.1419L9.72662 37.2479L9.77362 37.2709L9.85662 37.3109L10.1796 37.4609L10.2476 37.4909L10.6246 37.6469L10.7166 37.6829L11.0716 37.8149L11.1166 37.8309L11.5126 37.9609L11.6086 37.9889L12.0086 38.1049C20.8836 39.7249 23.4616 32.7709 23.4616 32.7709C21.2966 35.5909 17.4616 36.3359 13.8116 35.5079C13.6736 35.4779 13.5396 35.4339 13.4056 35.3939L13.3056 35.3639C13.1749 35.3237 13.0449 35.2814 12.9156 35.2369L12.8616 35.2169C12.7456 35.1769 12.6316 35.1329 12.5166 35.0889L12.4196 35.0509C12.2944 35.0015 12.17 34.9498 12.0466 34.8959L11.9726 34.8629L11.6586 34.7169L11.5586 34.6729C11.4766 34.6329 11.3966 34.5909 11.3156 34.5489L11.1536 34.4639C11.0557 34.4113 10.9587 34.357 10.8626 34.3009L10.7646 34.2459C10.6368 34.1705 10.5101 34.0932 10.3846 34.0139C10.3496 33.9919 10.3166 33.9679 10.2826 33.9459L10.0126 33.7659C9.98262 33.7459 9.95462 33.7259 9.92562 33.7059L9.67062 33.5209L9.55762 33.4359L9.32762 33.2559L9.22462 33.1739L8.93762 32.9319C8.92762 32.9219 8.91762 32.9149 8.90762 32.9059C8.80562 32.8059 8.70562 32.7239 8.60562 32.6319L8.52062 32.5499L8.30362 32.3379L8.21862 32.2529C8.12837 32.1608 8.03969 32.0671 7.95262 31.9719C7.8565 31.8668 7.76216 31.7602 7.66962 31.6519L7.59962 31.5679L7.40562 31.3279L7.33562 31.2279L7.11162 30.9299C5.09962 28.1779 4.37262 24.3739 5.99962 21.2499M10.2626 20.8449C8.93562 22.7449 9.00762 25.3119 10.0426 27.3309C10.216 27.6705 10.4121 27.9979 10.6296 28.3109C10.8296 28.5959 11.0496 28.9349 11.3126 29.1639L11.6106 29.4639L11.6886 29.5409L11.9926 29.8239L12.0076 29.8369L12.3626 30.1309L12.4426 30.1939L12.8146 30.4639L13.0746 30.6369L13.3496 30.8069L13.3896 30.8299L13.6336 30.9659L13.7206 31.0109L13.8906 31.0989L13.9166 31.1109L14.2716 31.2769L14.3496 31.3089L14.6496 31.4269L14.7746 31.4729L15.0416 31.5659L15.1616 31.6059C15.2896 31.6459 15.4156 31.7059 15.5486 31.7179C22.4016 32.8529 23.9836 27.5779 23.9836 27.5779C22.5576 29.6319 19.7956 30.6119 16.8486 29.8479L16.4606 29.7359L16.3436 29.6979L16.0736 29.6039L15.9506 29.5579L15.6586 29.4399L15.5786 29.4069L15.2216 29.2409L15.0416 29.1409L14.9386 29.0879L14.6586 28.9279L14.3836 28.7599L14.1236 28.5869L13.7536 28.3169L13.6706 28.2509C12.3706 27.2329 11.3576 25.8509 10.8706 24.2629C10.3706 22.6259 10.4706 20.7889 11.3536 19.2979M15.0436 19.1849C14.2616 20.3349 14.1836 21.7649 14.7276 23.0379C15.2996 24.3879 16.4736 25.4379 17.8426 25.9379L18.0126 25.9979L18.0876 26.0219L18.3316 26.0919C22.1156 26.8219 23.1316 24.1499 23.4146 23.7569C22.5146 25.0509 21.0146 25.3619 19.1506 24.9119C18.9989 24.8718 18.8488 24.8258 18.7006 24.7739C18.5192 24.7097 18.3413 24.6359 18.1676 24.5529C17.8381 24.3944 17.5253 24.2034 17.2336 23.9829C15.5736 22.7229 14.5336 20.3229 15.6266 18.3679" fill="#FFF9F9"/>
</svg>
