<svg width="78" height="78" viewBox="0 0 78 78" fill="none" xmlns="http://www.w3.org/2000/svg">
<path d="M63.7102 26.9954C62.8875 26.7211 62.0648 26.4622 61.2422 26.2184C61.3793 25.6547 61.5012 25.0911 61.623 24.5274C63.4969 15.4477 62.2629 8.15044 58.1039 5.74341C54.0973 3.44302 47.5617 5.83481 40.95 11.5934C40.2949 12.1571 39.6551 12.7512 39.0457 13.3454C38.6344 12.9493 38.2078 12.5532 37.7812 12.1723C30.8496 6.01763 23.9027 3.42778 19.7438 5.85005C15.7523 8.16567 14.5641 15.0364 16.2398 23.6286C16.4074 24.4817 16.5902 25.3196 16.8035 26.1727C15.8285 26.4469 14.8687 26.7516 13.9699 27.0715C5.83476 29.8899 0 34.3383 0 38.9391C0 43.6922 6.21563 48.4606 14.6707 51.3551C15.3563 51.5836 16.0418 51.8122 16.7426 52.0102C16.5141 52.9243 16.316 53.8231 16.1332 54.7524C14.5336 63.2075 15.7828 69.9106 19.7742 72.211C23.8875 74.5875 30.8039 72.15 37.5375 66.2543C38.0707 65.7821 38.6039 65.2946 39.1371 64.7766C39.8074 65.4317 40.5082 66.0563 41.209 66.6657C47.7293 72.2719 54.1734 74.5418 58.1496 72.2415C62.2629 69.8649 63.6035 62.659 61.8668 53.884C61.7297 53.2137 61.5773 52.5282 61.4098 51.8274C61.8973 51.6903 62.3695 51.5379 62.8418 51.3856C71.632 48.4758 78 43.7684 78 38.9391C78 34.3231 71.9977 29.8442 63.7102 26.9954ZM43.098 14.0614C48.7652 9.12544 54.0516 7.19067 56.4586 8.577C59.0332 10.0547 60.0234 16.0266 58.4086 23.8723C58.302 24.3903 58.1953 24.893 58.0582 25.3958C54.6762 24.634 51.2484 24.0856 47.8055 23.7809C45.825 20.9473 43.6617 18.2356 41.3156 15.6915C41.9098 15.1278 42.4887 14.5946 43.098 14.0614ZM25.4719 46.8457C26.2488 48.1711 27.041 49.4965 27.8789 50.7915C25.5023 50.5325 23.141 50.1516 20.8102 49.6489C21.4805 47.4551 22.3184 45.1852 23.2934 42.8696C23.9941 44.2102 24.7102 45.5356 25.4719 46.8457ZM20.8559 28.5188C23.0496 28.0313 25.3805 27.6352 27.8027 27.3305C26.9953 28.595 26.2031 29.8899 25.4566 31.2C24.7102 32.495 23.9789 33.8204 23.2934 35.161C22.3336 32.8911 21.5262 30.6668 20.8559 28.5188ZM25.0301 39.0153C26.0355 36.9129 27.1324 34.8563 28.2902 32.8301C29.448 30.804 30.6973 28.8387 32.0074 26.904C34.2926 26.7364 36.6234 26.645 39 26.645C41.3766 26.645 43.7227 26.7364 45.9926 26.904C47.2875 28.8235 48.5215 30.7887 49.6945 32.7997C50.8676 34.8106 51.9645 36.8672 53.0004 38.9543C51.9797 41.0567 50.8828 43.1286 49.7098 45.17C48.552 47.1961 47.318 49.1614 46.023 51.1114C43.7531 51.279 41.3918 51.3551 39 51.3551C36.6082 51.3551 34.2926 51.279 32.0531 51.1418C30.7277 49.2071 29.4785 47.2266 28.3055 45.2004C27.1324 43.1743 26.0508 41.1176 25.0301 39.0153ZM52.5434 46.8153C53.3203 45.4747 54.0516 44.1188 54.7676 42.7477C55.7426 44.9567 56.5957 47.1961 57.3422 49.4965C54.9809 50.0297 52.5891 50.4411 50.182 50.7153C51.0047 49.4356 51.7816 48.1254 52.5434 46.8153ZM54.7371 35.161C54.0211 33.8204 53.2898 32.4797 52.5281 31.1696C51.7816 29.8747 51.0047 28.595 50.1973 27.3305C52.65 27.6352 54.9961 28.0465 57.1898 28.5493C56.4891 30.804 55.6664 32.9977 54.7371 35.161ZM39.0305 18.0223C40.6301 19.759 42.1383 21.5872 43.5398 23.4762C40.5234 23.3391 37.4918 23.3391 34.4754 23.4762C35.9684 21.511 37.507 19.6829 39.0305 18.0223ZM21.3586 8.68364C23.918 7.19067 29.6004 9.32349 35.5875 14.625C35.9684 14.9602 36.3492 15.3258 36.7453 15.6915C34.384 18.2356 32.2055 20.9473 30.2098 23.7809C26.7668 24.0856 23.3543 24.6188 19.9723 25.3653C19.7742 24.5883 19.6066 23.7961 19.4391 23.004C18.007 15.6305 18.9516 10.07 21.3586 8.68364ZM17.6262 48.8415C16.9863 48.6586 16.3617 48.4606 15.7371 48.2473C12.4922 47.2266 8.80547 45.6118 6.13945 43.4942C4.60078 42.4278 3.56484 40.7825 3.27539 38.9391C3.27539 36.1512 8.08945 32.5864 15.0363 30.1641C15.9047 29.8594 16.7883 29.5852 17.6719 29.3262C18.7078 32.6321 19.957 35.877 21.4043 39.0153C19.9418 42.1993 18.6773 45.4899 17.6262 48.8415ZM35.3895 63.7711C32.8758 66.0715 29.966 67.8997 26.7973 69.1489C25.1062 69.9563 23.1562 70.0325 21.4195 69.3469C18.9973 67.9454 17.9918 62.5676 19.3629 55.3313C19.5305 54.4782 19.7133 53.625 19.9266 52.7872C23.3391 53.5184 26.782 54.0211 30.2707 54.2801C32.2816 57.129 34.4906 59.8559 36.852 62.4153C36.3645 62.8876 35.877 63.3446 35.3895 63.7711ZM39.1219 60.0692C37.568 58.3934 36.0141 56.5348 34.5059 54.5391C35.9684 54.6 37.4766 54.6305 39 54.6305C40.5691 54.6305 42.1078 54.6 43.6312 54.5239C42.2297 56.4586 40.7215 58.302 39.1219 60.0692ZM59.0332 64.6395C58.8961 66.4981 57.982 68.2348 56.5195 69.4079C54.0973 70.8094 48.9328 68.9813 43.357 64.1977C42.7172 63.6493 42.0773 63.0551 41.4223 62.4457C43.7531 59.8711 45.9012 57.1442 47.8512 54.2801C51.3398 53.9907 54.8133 53.4575 58.241 52.6805C58.3934 53.3051 58.5305 53.9297 58.6523 54.5391C59.3988 57.8297 59.5207 61.2575 59.0332 64.6395ZM61.8059 48.2625C61.3793 48.3997 60.9527 48.5368 60.5109 48.6586C59.4445 45.3375 58.1344 42.0926 56.6262 38.9391C58.0887 35.8313 59.3227 32.6321 60.3586 29.3567C61.1508 29.5852 61.9125 29.829 62.6438 30.0727C69.743 32.5102 74.7246 36.136 74.7246 38.9086C74.7246 41.8946 69.4078 45.7489 61.8059 48.2625ZM39 45.9774C42.8543 45.9774 45.9773 42.8543 45.9773 39C45.9773 35.1458 42.8543 32.0227 39 32.0227C35.1457 32.0227 32.0227 35.1458 32.0227 39C32.0227 42.8543 35.1457 45.9774 39 45.9774Z" fill="#FFF9F9"/>
</svg>
